<svg height="512pt" viewBox="0 -29 512 512" width="512pt" xmlns="http://www.w3.org/2000/svg"><path d="m227.199219 259.285156v10.007813c0 4.144531 3.359375 7.5 7.5 7.5 4.144531 0 7.5-3.355469 7.5-7.5v-10.007813c0-4.140625-3.355469-7.5-7.5-7.5-4.140625 0-7.5 3.359375-7.5 7.5zm0 0"/><path d="m352.800781 259.285156c0-4.140625-3.359375-7.5-7.5-7.5-4.144531 0-7.5 3.359375-7.5 7.5v10.007813c0 4.144531 3.355469 7.5 7.5 7.5 4.140625 0 7.5-3.355469 7.5-7.5zm0 0"/><path d="m298 263.660156c-1.929688 2.210938-4.84375 3.476563-8 3.476563s-6.070312-1.265625-8.003906-3.476563c-2.726563-3.117187-7.460938-3.433594-10.582032-.710937-3.117187 2.726562-3.4375 7.464843-.710937 10.585937 4.78125 5.464844 11.8125 8.601563 19.296875 8.601563s14.515625-3.136719 19.296875-8.601563c2.722656-3.121094 2.40625-7.859375-.710937-10.585937-3.121094-2.722657-7.859376-2.40625-10.585938.710937zm0 0"/><path d="m184.960938 266.960938c0 57.917968 47.121093 105.039062 105.039062 105.039062 17.5625 0 34.949219-4.425781 50.28125-12.796875 3.632812-1.984375 4.972656-6.542969 2.984375-10.175781-1.984375-3.636719-6.539063-4.972656-10.175781-2.988282-13.128906 7.171876-28.03125 10.960938-43.089844 10.960938-49.648438 0-90.039062-40.390625-90.039062-90.039062 0-49.648438 40.390624-90.039063 90.039062-90.039063s90.039062 40.390625 90.039062 90.039063c0 23.429687-8.953124 45.617187-25.21875 62.484374-2.875 2.980469-2.789062 7.730469.195313 10.605469 2.980469 2.875 7.726563 2.789063 10.601563-.195312 18.972656-19.675781 29.421874-45.5625 29.421874-72.894531 0-57.917969-47.121093-105.039063-105.039062-105.039063s-105.039062 47.121094-105.039062 105.039063zm0 0"/><path d="m437.121094 150.921875c12.660156 0 22.957031-10.300781 22.957031-22.957031s-10.296875-22.953125-22.957031-22.953125c-12.65625 0-22.953125 10.296875-22.953125 22.953125s10.296875 22.957031 22.953125 22.957031zm0-30.910156c4.386718 0 7.957031 3.566406 7.957031 7.953125 0 4.386718-3.570313 7.957031-7.957031 7.957031-4.386719 0-7.953125-3.570313-7.953125-7.957031 0-4.386719 3.566406-7.953125 7.953125-7.953125zm0 0"/><path d="m304.925781 24.988281h-27.351562c-12.636719 0-22.921875 10.285157-22.921875 22.925781 0 12.640626 10.285156 22.925782 22.921875 22.925782h27.351562c12.636719 0 22.921875-10.285156 22.921875-22.925782 0-12.640624-10.285156-22.925781-22.921875-22.925781zm0 30.851563h-27.351562c-4.367188 0-7.921875-3.558594-7.921875-7.925782 0-4.367187 3.554687-7.925781 7.921875-7.925781h27.351562c4.367188 0 7.921875 3.558594 7.921875 7.925781 0 4.367188-3.554687 7.925782-7.921875 7.925782zm0 0"/><path d="m65.671875 454.910156h380.65625c36.210937 0 65.671875-29.460937 65.671875-65.671875v-244.558593c0-36.210938-29.460938-65.667969-65.671875-65.667969h-40.933594l-19.738281-51.128907c-6.4375-16.679687-22.773438-27.882812-40.648438-27.882812h-107.515624c-17.875 0-34.210938 11.207031-40.648438 27.882812l-19.738281 51.128907h-24.605469v-15.113281c0-13.726563-11.171875-24.898438-24.898438-24.898438h-44.53125c-13.730468 0-24.898437 11.171875-24.898437 24.898438v15.550781c-32.691406 3.738281-58.171875 31.558593-58.171875 65.230469v244.558593c0 36.210938 29.460938 65.671875 65.671875 65.671875zm370.425781-142.339844c.027344-.082031.050782-.160156.078125-.242187 14.054688-45.195313 5.816407-96.648437-22.421875-135.40625h83.246094v180.078125h-83.242188c9.871094-13.554688 17.390626-28.5625 22.339844-44.429688zm-225.261718-279.285156c4.222656-10.9375 14.933593-18.285156 26.65625-18.285156h107.511718c11.726563 0 22.4375 7.347656 26.660156 18.285156l17.652344 45.726563h-196.132812zm-137.664063 30.613282c0-5.457032 4.4375-9.898438 9.898437-9.898438h44.53125c5.457032 0 9.898438 4.441406 9.898438 9.898438v15.113281h-64.328125zm-58.171875 80.78125c0-27.9375 22.730469-50.667969 50.671875-50.667969h380.65625c27.941406 0 50.671875 22.726562 50.671875 50.667969v17.242187h-95.707031c-28.675781-30.359375-69.527344-48-111.292969-48-17.378906 0-34.453125 2.902344-50.746094 8.628906-3.910156 1.375-5.964844 5.652344-4.589844 9.5625 1.351563 3.855469 5.707032 5.945313 9.5625 4.589844 15.820313-5.550781 32.65625-8.179687 49.414063-7.730469h.089844c73.519531 1.8125 134.308593 64.546875 134.308593 137.988282 0 11.359374-1.535156 23.511718-4.371093 34.523437-15.492188 60.097656-71.613281 103.515625-133.667969 103.515625-62.164062 0-118.128906-43.378906-133.667969-103.519531-15.0625-58.292969 10.800781-121.671875 62.574219-152.851563 3.480469-2.09375 4.644531-6.828125 2.554688-10.300781-2.136719-3.550781-6.746094-4.691406-10.296876-2.558594-11.90625 7.164063-22.917968 16.046875-32.457031 26.152344h-163.707031zm0 32.242187h151.246094c-.253906.34375-.496094.695313-.746094 1.042969-4.589844 6.410156-8.757812 13.308594-12.324219 20.410156-4.742187 9.449219-8.511719 19.40625-11.191406 29.632812-20.375 1.285157-36.5625 18.261719-36.5625 38.953126 0 20.691406 16.1875 37.667968 36.5625 38.953124.566406 2.15625 1.1875 4.300782 1.847656 6.429688.019531.066406.039063.132812.0625.203125 4.949219 15.875 12.46875 30.890625 22.347657 44.453125h-151.242188zm123.683594 67.140625c-1.140625 7.570312-1.722656 15.242188-1.722656 22.898438 0 7.796874.59375 15.640624 1.777343 23.351562-10.5-2.574219-18.316406-12.070312-18.316406-23.351562 0-11.285157 7.816406-20.78125 18.320313-23.351563-.023438.152344-.039063.300781-.058594.453125zm-123.683594 127.9375h163.707031c10.816407 11.453125 23.449219 21.234375 37.242188 28.851562 21.957031 12.191407 47.207031 19.148438 74.050781 19.148438 26.878906 0 53.675781-7.226562 76.898438-20.769531 12.683593-7.394531 24.3125-16.554688 34.394531-27.230469h95.707031v17.238281c0 27.941407-22.730469 50.671875-50.671875 50.671875h-380.65625c-27.941406 0-50.671875-22.730468-50.671875-50.671875zm0 0"/></svg>