<?xml version="1.0" encoding="iso-8859-1"?>
<!-- Generator: Adobe Illustrator 19.0.0, SVG Export Plug-In . SVG Version: 6.00 Build 0)  -->
<svg version="1.1" id="Capa_1" xmlns="http://www.w3.org/2000/svg" xmlns:xlink="http://www.w3.org/1999/xlink" x="0px" y="0px"
	 viewBox="0 0 512 512" style="enable-background:new 0 0 512 512;" xml:space="preserve">
<g>
	<g>
		<g>
			<path d="M463.709,266.216c6.337,2.791,13.38,2.949,19.83,0.443c6.454-2.506,11.545-7.374,14.336-13.709l11.91-27.027
				c2.791-6.335,2.949-13.378,0.443-19.83c-2.506-6.453-7.374-11.544-13.708-14.335l-46.695-20.578
				c-3.787-1.67-8.217,0.048-9.888,3.839c-1.67,3.79,0.049,8.217,3.839,9.888l46.695,20.578c2.668,1.176,4.72,3.32,5.774,6.039
				c1.056,2.718,0.989,5.685-0.186,8.352l-11.91,27.027c-2.428,5.508-8.882,8.016-14.392,5.588l-20.001-8.814
				c-0.018-0.008-0.037-0.017-0.055-0.024l-167.796-73.944c-16.464-7.256-35.348-7.255-51.81,0.001L62.296,243.653
				c-0.015,0.006-0.029,0.013-0.043,0.019l-20.009,8.818c-2.669,1.176-5.634,1.242-8.354,0.188
				c-2.718-1.056-4.862-3.106-6.038-5.774l-11.911-27.028c-1.176-2.668-1.242-5.635-0.186-8.352
				c1.055-2.719,3.106-4.863,5.774-6.039l56.236-24.782c0.01-0.004,0.019-0.009,0.028-0.012l95.836-42.232
				c0.013-0.005,0.025-0.011,0.037-0.017l62.48-27.534c12.619-5.561,27.094-5.562,39.713,0.001l132.312,58.308
				c3.788,1.67,8.216-0.048,9.888-3.839c1.67-3.79-0.049-8.217-3.839-9.888L281.907,97.183c-16.462-7.255-35.348-7.256-51.81-0.001
				l-51.875,22.86v-36.8c11.936-0.791,21.406-10.748,21.406-22.88V43.603c0-12.647-10.29-22.936-22.937-22.936H68.885
				c-12.647,0-22.937,10.29-22.937,22.936v16.759c0,12.133,9.471,22.089,21.406,22.88v85.656l-51.874,22.86
				c-6.335,2.792-11.203,7.883-13.708,14.335s-2.348,13.496,0.443,19.83l11.911,27.028c2.792,6.335,7.883,11.203,14.336,13.709
				c3.044,1.181,6.218,1.77,9.388,1.77c3.551,0,7.096-0.74,10.443-2.215l9.409-4.147v86.947c0,4.143,3.357,7.5,7.5,7.5
				c4.143,0,7.5-3.357,7.5-7.5v-93.557l163.445-72.026c12.619-5.562,27.092-5.563,39.713-0.001l163.445,72.027v146.011h-58.763
				c-20.421,0-37.769,13.375-43.767,31.821h-21.23v-52.547c0-16.255-13.224-29.479-29.478-29.479h-60.126
				c-16.255,0-29.479,13.224-29.479,29.479v52.547h-32.993c-5.999-18.446-23.346-31.821-43.767-31.821H72.7v-15.582
				c0-4.143-3.357-7.5-7.5-7.5s-7.5,3.357-7.5,7.5v15.582H46.029c-25.375,0-46.019,20.644-46.019,46.018v27.735
				c0,8.884,7.227,16.11,16.111,16.11h467.996c8.885,0,16.111-7.228,16.111-16.11v-27.735c0-25.344-20.594-45.966-45.927-46.016
				V262.071L463.709,266.216z M163.221,126.652l-80.867,35.637v-78.99h80.867V126.652z M60.948,60.362V43.603
				c0-4.377,3.561-7.938,7.938-7.938h107.806c4.377,0,7.938,3.561,7.938,7.938v16.759c0,4.377-3.561,7.938-7.938,7.938H68.885
				C64.508,68.299,60.948,64.739,60.948,60.362z M150.72,475.226h-0.002c0,0.612-0.498,1.111-1.111,1.111H16.122
				c-0.613,0-1.112-0.499-1.112-1.111v-27.735c0-17.103,13.915-31.019,31.02-31.019h73.67c17.103,0,31.02,13.916,31.02,31.019
				V475.226z M165.66,476.337c0.025-0.369,0.056-0.736,0.056-1.111v-26.934h30.741v28.045H165.66z M211.457,476.337v-95.591
				c0-7.984,6.496-14.479,14.479-14.479h60.126c7.984,0,14.478,6.496,14.478,14.479v95.591H211.457z M315.542,476.337v-28.045
				h18.979v26.934c0,0.375,0.031,0.743,0.056,1.111H315.542z M485.229,447.49v27.735c0,0.612-0.499,1.111-1.112,1.111H350.632
				c-0.612,0-1.111-0.499-1.111-1.111V447.49c0-17.103,13.915-31.019,31.019-31.019h73.67
				C471.314,416.471,485.229,430.386,485.229,447.49z"/>
			<path d="M256,327.282c30.786,0,55.833-25.047,55.833-55.833S286.786,215.617,256,215.617s-55.833,25.046-55.833,55.832
				S225.214,327.282,256,327.282z M263.499,231.32c16.511,3.079,29.552,16.12,32.632,32.631h-32.632V231.32z M263.499,278.949
				h32.632c-3.079,16.511-16.12,29.552-32.632,32.632V278.949z M248.5,231.32v32.631h-32.632
				C218.948,247.439,231.989,234.399,248.5,231.32z M248.5,278.949v32.632c-16.511-3.079-29.552-16.12-32.632-32.632H248.5z"/>
			<circle cx="228.91" cy="425.794" r="7.347"/>
		</g>
	</g>
</g>
<g>
</g>
<g>
</g>
<g>
</g>
<g>
</g>
<g>
</g>
<g>
</g>
<g>
</g>
<g>
</g>
<g>
</g>
<g>
</g>
<g>
</g>
<g>
</g>
<g>
</g>
<g>
</g>
<g>
</g>
</svg>
