<?xml version="1.0" encoding="iso-8859-1"?>
<!-- Generator: Adobe Illustrator 19.0.0, SVG Export Plug-In . SVG Version: 6.00 Build 0)  -->
<svg xmlns="http://www.w3.org/2000/svg" xmlns:xlink="http://www.w3.org/1999/xlink" version="1.1" id="Layer_1" x="0px" y="0px" viewBox="0 0 512 512" style="enable-background:new 0 0 512 512;" xml:space="preserve" width="512" height="512">
<g>
	<path d="M349.806,233.083c4.142,0,7.5-3.358,7.5-7.5v-18.234c0-4.142-3.358-7.5-7.5-7.5s-7.5,3.358-7.5,7.5v18.234   C342.306,229.726,345.664,233.083,349.806,233.083z"/>
	<path d="M362.224,244.885h-24.835c-4.142,0-7.5,3.358-7.5,7.5s3.358,7.5,7.5,7.5h24.835c4.142,0,7.5-3.358,7.5-7.5   S366.366,244.885,362.224,244.885z"/>
	<path d="M162.249,233.083c4.142,0,7.5-3.358,7.5-7.5v-18.234c0-4.142-3.358-7.5-7.5-7.5s-7.5,3.358-7.5,7.5v18.234   C154.749,229.726,158.107,233.083,162.249,233.083z"/>
	<path d="M174.667,244.885h-24.835c-4.142,0-7.5,3.358-7.5,7.5s3.358,7.5,7.5,7.5h24.835c4.142,0,7.5-3.358,7.5-7.5   S178.809,244.885,174.667,244.885z"/>
	<path d="M277.737,238.287c-3.119-2.726-7.857-2.408-10.583,0.711c-2.698,3.086-6.753,4.857-11.126,4.857   c-4.373,0-8.428-1.771-11.126-4.857c-2.726-3.119-7.464-3.437-10.583-0.711c-3.119,2.727-3.437,7.464-0.711,10.583   c5.547,6.346,13.719,9.985,22.42,9.985c8.702,0,16.874-3.639,22.42-9.985C281.174,245.751,280.856,241.013,277.737,238.287z"/>
	<path d="M370.52,512c4.142,0,7.5-3.358,7.5-7.5c0-13.604-1.465-26.983-4.355-39.764c-0.067-0.295-0.156-0.581-0.256-0.86   c-7.297-31.524-21.584-52.824-30.33-63.549c18.584-9.285,35.75-21.609,50.868-36.728c6.984-6.984,13.37-14.407,19.139-22.203   c14.624,20.683,38.194,32.938,63.718,32.939l0.852-0.005c7.801-0.084,14.967-4.71,18.256-11.784   c11.381-24.474,9.448-52.606-5.172-75.255c-3.002-4.65-6.482-8.939-10.379-12.834c8.426-9.01,13.599-21.099,13.599-34.379   c0-13.013-4.959-24.889-13.085-33.839c-4.016-47.414-22.528-91.488-53.653-127.614c-2.704-3.138-7.439-3.49-10.578-0.787   c-3.138,2.704-3.49,7.439-0.787,10.578c26.106,30.3,42.713,66.592,48.529,105.753c-1.874-0.851-3.805-1.571-5.771-2.184   c-4.557-1.421-9.388-2.208-14.163-2.287c-0.736-0.706-2.279-2.131-2.31-2.159c-13.33-12.169-29.151-20.983-45.901-27.531   c-8.804-3.442-17.807-6.353-26.814-9.212c-34.718-11.099-70.617-22.576-102.689-70.775c-2.324-3.493-6.446-5.743-10.71-5.743   c-4.225,0-8.371,2.228-10.711,5.743c-32.072,48.199-67.971,59.676-102.689,70.775c-27.267,8.717-53.983,18.725-75.025,38.902   c-0.292,0.005-0.581,0.027-0.873,0.037c-4.437,0.154-8.845,0.88-13.089,2.189c-2.027,0.625-4.019,1.36-5.951,2.237   c2.512-16.884,7.042-33.283,13.533-48.984c2.955,1.189,6.105,1.817,9.326,1.817c7.615,0,14.857-3.693,20.17-9.005   c1.952-1.951,3.607-3.936,5.013-6.032c1.406,2.095,3.063,4.08,5.015,6.032c10.455,10.455,27.453,12.211,38.352,1.3   c4.63-4.631,6.482-9.46,6.993-13.679c24.336-2.952,25.553-34.322,9.753-47.76c-1.111-0.945-2.24-1.813-3.406-2.595   c2.094-1.406,4.079-3.063,6.032-5.016c8.907-8.907,12.153-22.781,4.926-33.886C191.989,22.358,223.803,15,256.028,15   c51.511,0,101.042,18.745,139.468,52.782c3.102,2.748,7.841,2.458,10.587-0.641c2.747-3.101,2.459-7.841-0.641-10.587   C364.27,20.084,311.207,0,256.028,0c-36.815,0-73.133,9-105.317,26.013c-1.633-0.586-3.193-0.932-4.619-1.113   c-0.511-4.221-2.367-9.053-7.005-13.691c-11.046-11.046-27.745-9.285-38.34,1.312c-1.951,1.951-3.606,3.936-5.012,6.031   c-1.406-2.094-3.063-4.079-5.015-6.031C80.121,1.921,63.383,0.208,52.371,11.22c-4.633,4.633-6.485,9.463-6.996,13.683   c-3.959,0.503-8.934,2.244-13.687,6.997C20.648,42.942,22.41,59.652,33,70.24c1.951,1.951,3.936,3.607,6.031,5.013   c-2.095,1.406-4.079,3.063-6.031,5.014c-11.487,11.485-12.035,27.614-1.301,38.352c4.751,4.752,9.724,6.491,13.679,6.992   c0.368,3.033,1.436,6.382,3.725,9.747c-9.8,22.43-15.806,46.231-17.898,70.856c-8.141,8.953-13.109,20.84-13.109,33.865   c0,13.266,5.162,25.343,13.572,34.351c-3.908,3.903-7.398,8.201-10.407,12.863c-14.62,22.648-16.553,50.78-5.172,75.253   c3.465,7.452,11.04,11.743,19.108,11.79c25.593,0,49.224-12.321,63.839-33.108c6.247,8.434,13.206,16.434,20.864,23.906   c14.704,14.348,31.272,26.109,49.127,35.063c-8.815,10.781-23.372,32.417-30.635,64.539c-2.89,12.781-4.355,26.159-4.355,39.764   c0,4.142,3.358,7.5,7.5,7.5H370.52z M42.306,108.013c-3.828-3.83-5.497-10.343,1.3-17.139c3.112-3.112,6.062-4.867,10.176-6.055   c1.838-0.53,5.439-1.329,12.151-2.123c3.775-0.447,6.619-3.647,6.619-7.449s-2.845-7.001-6.62-7.448   c-6.727-0.795-10.317-1.59-12.144-2.116c-4.124-1.189-7.074-2.942-10.183-6.051c-2.996-2.996-4.591-6.28-4.613-9.497   c-0.039-5.737,5.915-12.373,11.975-9.833c6.061,2.541,12.349-3.756,9.815-9.812c-1.266-3.027-0.527-5.942,2.195-8.664   c5.218-5.219,12.348-3.487,17.135,1.299c6.083,6.083,7.214,14.178,8.18,22.333c0.447,3.775,3.647,6.619,7.449,6.618   c3.801,0,7.001-2.845,7.447-6.621c0.969-8.196,2.085-16.249,8.166-22.33c4.784-4.784,11.913-6.525,17.126-1.311   c3.401,3.401,3.077,6.591,2.206,8.669c-2.539,6.057,3.745,12.356,9.81,9.82c6.148-2.57,12.01,3.973,11.974,9.832   c-0.021,3.22-1.614,6.504-4.607,9.498c-6.09,6.089-14.148,7.208-22.334,8.179c-3.775,0.447-6.619,3.647-6.618,7.449   c0,3.701,2.868,7.004,6.619,7.447c8.112,0.959,16.296,2.128,22.332,8.166c3.398,3.398,4.681,6.724,4.637,9.678   c-0.083,5.707-5.993,12.168-11.999,9.654c-5.958-2.494-12.317,3.836-9.817,9.812c1.267,3.028,0.529,5.944-2.192,8.665   c-4.201,4.202-10.179,4.088-14.825,0.695c-0.011-0.008-0.023-0.018-0.034-0.027c-7.775-5.628-9.406-15.413-10.457-24.297   c-0.455-3.845-3.968-6.796-7.826-6.601c-3.583,0.176-6.649,3.033-7.071,6.602c-1.045,8.844-2.868,18.685-10.49,24.33   c-4.352,3.223-10.868,3.242-14.803-0.693c-3.399-3.399-3.074-6.593-2.204-8.674c2.477-5.922-3.916-12.278-9.812-9.814   C47.779,111.538,44.643,110.35,42.306,108.013z M462.977,269.651c-5.423,3.566-11.802,5.571-18.284,5.771   c3.112-11.885,5.108-24.122,5.933-36.59c0.622-9.408,0.585-18.867-0.137-28.269c-0.134-1.749-0.381-3.506-0.462-5.256   c-0.001-0.011,1.213,0.226,1.26,0.237c15.864,3.545,27.671,18.131,27.671,34.535C478.96,251.78,472.751,263.223,462.977,269.651z    M65.02,275.295c-2.077-0.2-6.207-1.173-6.237-1.182c-14.812-4.227-25.688-17.884-25.688-34.035   c0-15.089,10.046-28.932,24.381-33.634c1.435-0.471,4.526-1.154,4.563-1.161c-0.026,0.249-0.041,0.5-0.066,0.75   c-1.166,11.695-1.293,23.505-0.367,35.222c0.912,11.532,2.851,22.984,5.799,34.17C66.608,275.403,65.815,275.372,65.02,275.295z    M88.191,330.497c-11.657,18.058-31.468,28.839-52.995,28.839c-2.325-0.013-4.469-0.885-5.506-3.114   c-9.196-19.774-7.636-42.5,4.173-60.794c2.735-4.237,5.953-8.111,9.604-11.566c5.229,2.995,10.917,4.978,16.854,5.934   c3.681,0.592,7.427,0.794,11.149,0.574c0.15-0.009,0.3-0.013,0.449-0.023c4.598,13.09,10.595,25.665,17.889,37.503   C89.288,328.75,88.748,329.634,88.191,330.497z M240.899,420.115c9.2,0.739,18.452,0.806,27.661,0.201   c5.987-0.377,11.922-1.021,17.791-1.932l0,26.872c-10.352,1.497-20.829,3.897-30.323,8.393c-5.608-2.655-12.227-4.808-19.758-6.468   c-0.064-0.014-7.089-1.421-10.565-1.924v-26.903C230.749,419.144,235.814,419.707,240.899,420.115z M315.202,443.67   c-4.59-0.751-9.244-0.276-13.851,0.031v-28.253c5.727-1.356,11.377-2.965,16.934-4.829v33.709   C317.857,444.21,315.797,443.768,315.202,443.67z M207.246,443.499c-4.517-0.238-9.129-0.379-13.531,0.843v-33.84   c5.578,1.887,11.245,3.52,16.989,4.892l0,28.308C209.552,443.624,208.399,443.559,207.246,443.499z M178.715,412.186v42.156   c-0.002,0.003-0.004,0.006-0.006,0.009c-1.122,1.414-2.117,2.932-2.965,4.54H155.39C161.81,436.91,171.805,421.19,178.715,412.186z    M151.817,473.891h20.553V497h-23.173C149.538,489.148,150.414,481.417,151.817,473.891z M187.37,472.523   c0-6.576,4.732-12.473,11.15-13.907c5.891-1.317,12.948,0.083,18.89,0.717c11.87,1.266,24.415,3.409,34.965,9.294   c2.24,1.249,5.068,1.247,7.307,0c6.178-3.442,13.045-5.479,19.93-6.95c9.935-2.124,20.127-3.071,30.273-3.379   c7.763-0.236,14.802,6.399,14.802,14.226V497H187.37V472.523z M339.686,497v-23.109h20.553c1.403,7.526,2.279,15.258,2.62,23.109   H339.686z M336.299,458.891c-0.848-1.603-1.84-3.117-2.959-4.527v-42.161c6.899,8.97,16.848,24.629,23.274,46.688H336.299z    M383.34,352.993c-34.797,34.798-82.648,53.903-131.898,52.672c-0.176-0.004-0.351-0.014-0.527-0.019   c-44.785-1.244-88.499-19.979-120.541-51.247c-39.957-38.991-59.766-95.141-53.067-150.591c0.12-0.989,0.252-2.001,0.39-2.998   c0.06-0.058,0.119-0.118,0.178-0.175c20.91-20.057,48.977-28.939,75.906-37.665c33.171-10.749,69.844-24.778,102.246-72.006   c31.323,45.654,66.635,60.285,98.918,70.919c28.281,9.316,57.202,17.572,79.234,38.751c0.061,0.059,0.122,0.121,0.183,0.18   c0.013,0.097,0.028,0.194,0.042,0.291c2.046,15.045,2.197,30.344,0.47,45.428C430.311,286.522,411.782,324.55,383.34,352.993z    M423.809,330.497c-0.548-0.85-1.079-1.72-1.591-2.605c7.327-11.865,13.327-24.439,17.918-37.542   c2.135,0.145,4.277,0.147,6.413,0.022c7.677-0.448,15.306-2.683,21.984-6.51c3.65,3.455,6.869,7.329,9.604,11.566   c11.809,18.294,13.369,41.021,4.173,60.795c-0.868,1.867-2.759,3.087-4.818,3.11l-0.688,0.004   C455.277,359.335,435.466,348.554,423.809,330.497z"/>
</g>















</svg>
