<svg height="512pt" viewBox="-8 0 511 512" width="512pt" xmlns="http://www.w3.org/2000/svg"><path d="m358.078125 466.390625-110.320313 19.054687-110.324218-19.054687c10.214844-45.171875 35.65625-68.632813 35.65625-68.632813h149.332031s25.445313 23.460938 35.65625 68.632813zm0 0" fill="#fff3e4"/><path d="m362.25 504.5h-228.984375c0-14.054688 1.605469-26.761719 4.171875-38.109375h220.640625c2.566406 11.347656 4.171875 24.054687 4.171875 38.109375zm0 0" fill="#ffcabd"/><path d="m177.945312 379.722656h31.988282v85.929688h-31.988282zm0 0" fill="#00bbc9"/><path d="m285.582031 379.722656h31.988281v85.929688h-31.988281zm0 0" fill="#00bbc9"/><path d="m323.914062 504.5v-31.976562c0-12.242188-10.101562-22.113282-22.339843-21.730469-16.59375.519531-38.851563 2.9375-53.816407 11.28125-14.964843-8.34375-37.226562-10.761719-53.820312-11.28125-12.234375-.382813-22.339844 9.488281-22.339844 21.730469v31.976562zm0 0" fill="#1fd7c3"/><path d="m29.578125 225.679688c0-58.28125 22.695313-113.070313 63.902344-154.277344 41.210937-41.207032 96-63.902344 154.277343-63.902344 58.277344 0 113.066407 22.695312 154.273438 63.902344 41.210938 41.210937 63.90625 96 63.90625 154.277344zm0 0" fill="#ff7f5a"/><path d="m267.757812 8.414062c-6.613281-.597656-13.28125-.914062-20-.914062-58.277343 0-113.066406 22.695312-154.277343 63.902344-41.207031 41.207031-63.902344 95.996094-63.902344 154.277344h40c0-58.28125 22.695313-113.070313 63.902344-154.277344 36.457031-36.457032 83.546875-58.410156 134.277343-62.988282zm0 0" fill="#ff5d29"/><path d="m87.246094 259.617188c-25.992188-3.203126-52.746094 8.265624-67.902344 31.742187-13.632812 21.121094-14.542969 46.796875-4.671875 68.023437 2.089844 4.488282 6.589844 7.394532 11.539063 7.449219 23.410156.253907 46.429687-11.144531 60.066406-32.265625 15.15625-23.480468 14.585937-52.582031.96875-74.949218zm0 0" fill="#ff7f5a"/><path d="m44.671875 359.382812c-9.871094-21.226562-8.960937-46.902343 4.671875-68.023437 9.53125-14.761719 23.648438-24.773437 39.277344-29.375-.445313-.796875-.898438-1.589844-1.375-2.367187-25.992188-3.203126-52.746094 8.265624-67.902344 31.742187-13.632812 21.121094-14.542969 46.796875-4.671875 68.023437 2.089844 4.488282 6.589844 7.394532 11.539063 7.449219 7.363281.078125 14.6875-.996093 21.695312-3.160156-1.34375-1.167969-2.457031-2.617187-3.234375-4.289063zm0 0" fill="#ff5d29"/><path d="m408.269531 259.617188c25.988281-3.203126 52.746094 8.265624 67.898438 31.742187 13.636719 21.121094 14.546875 46.796875 4.671875 68.023437-2.085938 4.488282-6.585938 7.394532-11.535156 7.449219-23.410157.253907-46.433594-11.144531-60.066407-32.265625-15.15625-23.480468-14.589843-52.582031-.96875-74.949218zm0 0" fill="#ff7f5a"/><path d="m439.238281 334.5625c-14.628906-22.65625-14.605469-50.554688-2.34375-72.578125-9.226562-2.71875-18.980469-3.554687-28.628906-2.367187-13.617187 22.367187-14.183594 51.46875.972656 74.945312 13.632813 21.125 36.65625 32.523438 60.066407 32.269531 3.109374-.035156 6.035156-1.191406 8.304687-3.160156-15.269531-4.722656-29.027344-14.628906-38.371094-29.109375zm0 0" fill="#ff5d29"/><path d="m478.1875 240.078125c0 23.6875-19.199219 42.886719-42.886719 42.886719-23.683593 0-42.886719-19.199219-42.886719-42.886719 0-23.683594 19.203126-42.886719 42.886719-42.886719 23.6875 0 42.886719 19.203125 42.886719 42.886719zm0 0" fill="#ffcabd"/><path d="m433.160156 197.242188c-53.515625-53.914063-122.867187-25.796876-180.9375-113.066407-2.128906-3.195312-6.804687-3.195312-8.929687 0-58.070313 87.269531-127.421875 59.152344-180.9375 113.066407-1.632813 10.734374-2.355469 21.765624-2.089844 33.015624 2.425781 101.417969 86.019531 182.953126 187.464844 182.964844 103.589843.015625 187.574219-83.957031 187.574219-187.542968-.003907-9.667969-.734376-19.164063-2.144532-28.4375zm0 0" fill="#ffdcce"/><path d="m90.265625 230.257812c-.21875-9.246093.230469-38.609374 1.304687-54.734374-10.121093 5.453124-19.90625 12.34375-29.214843 21.71875v.003906c-.699219-.035156-1.414063-.054688-2.144531-.054688-23.683594 0-42.886719 19.203125-42.886719 42.886719 0 23.6875 19.203125 42.886719 42.886719 42.886719 3.195312 0 6.0625-.359375 8.648437-1.019532 24.023437 76.058594 95.398437 131.265626 178.871094 131.277344 5.074219.003906 10.101562-.207031 15.074219-.601562-94.59375-7.542969-170.234376-85.96875-172.539063-182.363282zm0 0" fill="#ffcabd"/><path d="m353.953125 259.886719h-24.835937c-4.140626 0-7.5-3.359375-7.5-7.5 0-4.144531 3.359374-7.5 7.5-7.5h24.835937c4.144531 0 7.5 3.355469 7.5 7.5 0 4.140625-3.359375 7.5-7.5 7.5zm0 0" fill="#ff8997"/><path d="m166.394531 259.886719h-24.832031c-4.144531 0-7.5-3.359375-7.5-7.5 0-4.144531 3.355469-7.5 7.5-7.5h24.832031c4.144531 0 7.5 3.355469 7.5 7.5 0 4.140625-3.355469 7.5-7.5 7.5zm0 0" fill="#ff8997"/><path d="m144.894531 85.570312c-3.796875-3.796874-7.773437-6.328124-13.40625-7.949218-3.359375-.96875-8.132812-1.742188-13.347656-2.359375 5.207031-.617188 9.976563-1.394531 13.351563-2.367188 5.636718-1.625 9.605468-4.160156 13.402343-7.957031 9.382813-9.382812 8.332031-20.714844 1.300781-27.742188-6.914062-6.910156-14.125-4.957031-16.863281-3.808593 1.148438-2.738281 3.09375-9.960938-3.820312-16.875-7.027344-7.027344-18.347657-8.070313-27.734375 1.3125-3.796875 3.796875-6.324219 7.773437-7.949219 13.410156-.96875 3.355469-1.742187 8.128906-2.359375 13.34375-.617188-5.207031-1.390625-9.976563-2.363281-13.351563-1.625-5.632812-4.164063-9.605468-7.960938-13.402343-9.382812-9.382813-20.710937-8.328125-27.742187-1.300781-6.910156 6.914062-4.953125 14.125-3.808594 16.863281-2.738281-1.144531-9.960938-3.089844-16.871094 3.820312-7.027344 7.027344-8.074218 18.351563 1.308594 27.734375 3.800781 3.796875 7.773438 6.328125 13.410156 7.953125 3.355469.964844 8.128906 1.742188 13.339844 2.359375-5.203125.613282-9.972656 1.390625-13.34375 2.363282-5.636719 1.625-9.605469 4.160156-13.402344 7.957031-9.386718 9.382812-8.328125 20.714843-1.300781 27.742187 6.910156 6.910156 14.121094 4.953125 16.863281 3.808594-1.144531 2.738281-3.09375 9.964844 3.816406 16.871094 7.027344 7.03125 18.351563 8.074218 27.734376-1.308594 3.796874-3.796875 6.328124-7.773438 7.953124-13.40625.96875-3.355469 1.742188-8.128906 2.359376-13.34375.617187 5.203125 1.390624 9.972656 2.363281 13.347656 1.628906 5.636719 4.160156 9.605469 7.957031 13.402344 9.382812 9.382812 20.714844 8.328125 27.746094 1.300781 6.910156-6.914062 4.953125-14.125 3.808594-16.863281 2.738281 1.148438 9.960937 3.089844 16.871093-3.820312 7.027344-7.027344 8.070313-18.351563-1.3125-27.734376zm0 0" fill="#1fd7c3"/><path d="m341.5625 233.082031c4.144531 0 7.5-3.355469 7.5-7.5v-18.234375c0-4.140625-3.355469-7.5-7.5-7.5-4.140625 0-7.5 3.359375-7.5 7.5v18.234375c0 4.144531 3.359375 7.5 7.5 7.5zm0 0"/><path d="m154.007812 233.082031c4.140626 0 7.5-3.355469 7.5-7.5v-18.234375c0-4.140625-3.359374-7.5-7.5-7.5-4.144531 0-7.5 3.359375-7.5 7.5v18.234375c0 4.144531 3.355469 7.5 7.5 7.5zm0 0"/><path d="m269.496094 238.285156c-3.121094-2.722656-7.859375-2.40625-10.585938.710938-2.695312 3.089844-6.753906 4.859375-11.125 4.859375s-8.429687-1.769531-11.125-4.859375c-2.726562-3.117188-7.464844-3.433594-10.582031-.710938-3.121094 2.730469-3.4375 7.464844-.714844 10.585938 5.550781 6.34375 13.722657 9.984375 22.421875 9.984375 8.703125 0 16.875-3.640625 22.421875-9.984375 2.722657-3.121094 2.40625-7.859375-.710937-10.585938zm0 0"/><path d="m362.277344 512c4.140625 0 7.5-3.359375 7.5-7.5 0-13.605469-1.464844-26.984375-4.355469-39.765625-.066406-.292969-.15625-.578125-.253906-.859375-7.296875-31.523438-21.585938-52.824219-30.332031-63.546875 18.585937-9.285156 35.75-21.609375 50.867187-36.730469 6.984375-6.984375 13.371094-14.40625 19.140625-22.203125 14.625 20.683594 38.195312 32.941407 63.71875 32.941407l.851562-.007813c7.800782-.082031 14.964844-4.707031 18.253907-11.78125 11.382812-24.476563 9.449219-52.605469-5.171875-75.257813-3-4.648437-6.480469-8.9375-10.378906-12.832031 8.425781-9.011719 13.601562-21.097656 13.601562-34.378906 0-13.011719-4.960938-24.890625-13.085938-33.839844-4.015624-47.414062-22.527343-91.488281-53.652343-127.613281-2.707031-3.136719-7.441407-3.488281-10.578125-.785156-3.140625 2.703125-3.492188 7.4375-.789063 10.574218 26.105469 30.300782 42.714844 66.59375 48.53125 105.753907-1.875-.851563-3.804687-1.570313-5.773437-2.183594-4.554688-1.421875-9.386719-2.207031-14.160156-2.285156-.738282-.707031-2.28125-2.132813-2.3125-2.160157-13.328126-12.167968-29.148438-20.984374-45.898438-27.53125-8.804688-3.441406-17.808594-6.351562-26.816406-9.210937-34.71875-11.101563-70.617188-22.578125-102.6875-70.777344-2.324219-3.492187-6.445313-5.742187-10.710938-5.742187-4.226562 0-8.371094 2.230468-10.710937 5.742187-32.070313 48.199219-67.972657 59.675781-102.6875 70.777344-27.269531 8.714844-53.984375 18.722656-75.027344 38.902344-.292969.003906-.582031.027343-.871094.035156-4.4375.15625-8.847656.878906-13.089843 2.191406-2.027344.625-4.019532 1.359375-5.953126 2.234375 2.515626-16.882812 7.042969-33.28125 13.535157-48.984375 2.953125 1.191407 6.105469 1.816407 9.324219 1.816407 7.617187 0 14.859374-3.691407 20.171874-9.003907 1.953126-1.949219 3.605469-3.933593 5.011719-6.03125 1.40625 2.09375 3.0625 4.078125 5.015625 6.03125 10.457032 10.457031 27.453125 12.210938 38.351563 1.300781 4.628906-4.632812 6.484375-9.460937 6.992187-13.679687 24.335938-2.953125 25.554688-34.320313 9.753906-47.757813-1.109374-.945312-2.238281-1.816406-3.40625-2.597656 2.09375-1.40625 4.078126-3.0625 6.03125-5.015625 8.910157-8.90625 12.15625-22.78125 4.925782-33.886719 28.59375-13.992187 60.40625-21.351562 92.632812-21.351562 51.511719 0 101.042969 18.746094 139.46875 52.78125 3.101563 2.75 7.839844 2.457031 10.585938-.640625 2.746094-3.101563 2.460937-7.839844-.640625-10.585937-41.171875-36.46875-94.234375-56.554688-149.414063-56.554688-36.816406 0-73.132812 9-105.316406 26.011719-1.632812-.585938-3.195312-.929688-4.621094-1.113281-.507812-4.21875-2.367187-9.050782-7.003906-13.6875-11.046875-11.046876-27.746094-9.285157-38.339844 1.308593-1.949218 1.953125-3.605468 3.9375-5.011718 6.03125-1.40625-2.09375-3.0625-4.078125-5.015626-6.03125-10.597656-10.597656-27.335937-12.3125-38.347656-1.300781-4.632812 4.632812-6.484375 9.464844-6.996094 13.683594-3.960937.503906-8.933593 2.246094-13.6875 6.996094-11.039062 11.042968-9.277343 27.753906 1.3125 38.339843 1.949219 1.953125 3.933594 3.609375 6.03125 5.015625-2.097656 1.40625-4.078124 3.0625-6.03125 5.011719-11.488281 11.488281-12.035156 27.617187-1.300781 38.351563 4.75 4.753906 9.722657 6.492187 13.679688 6.992187.367187 3.035156 1.433593 6.382813 3.722656 9.75-9.800781 22.429687-15.804687 46.230469-17.898437 70.855469-8.140626 8.953125-13.109376 20.839844-13.109376 33.863281 0 13.265625 5.164063 25.34375 13.574219 34.351563-3.910156 3.902343-7.398437 8.203124-10.40625 12.863281-14.621093 22.648437-16.554687 50.78125-5.171875 75.253906 3.464844 7.449219 11.039063 11.742187 19.105469 11.789063 25.59375 0 49.226563-12.320313 63.839844-33.109376 6.246093 8.433594 13.207031 16.433594 20.863281 23.90625 14.703125 14.347657 31.273438 26.109376 49.128906 35.0625-8.816406 10.78125-23.371094 32.417969-30.636718 64.539063-2.890626 12.78125-4.355469 26.160156-4.355469 39.765625 0 4.140625 3.359375 7.5 7.5 7.5zm-328.214844-403.988281c-3.828125-3.828125-5.496094-10.339844 1.300781-17.136719 3.113281-3.113281 6.0625-4.867188 10.175781-6.054688 1.839844-.53125 5.4375-1.332031 12.152344-2.125 3.773438-.445312 6.617188-3.644531 6.617188-7.449218 0-3.800782-2.84375-7-6.621094-7.445313-6.726562-.796875-10.316406-1.589843-12.140625-2.117187-4.125-1.191406-7.074219-2.941406-10.183594-6.050782-2.996093-2.996093-4.59375-6.28125-4.613281-9.496093-.039062-5.738281 5.914062-12.375 11.972656-9.835938 6.0625 2.542969 12.351563-3.753906 9.816406-9.8125-1.265624-3.023437-.527343-5.941406 2.195313-8.664062 5.21875-5.21875 12.347656-3.484375 17.136719 1.300781 6.082031 6.082031 7.210937 14.179688 8.179687 22.332031.445313 3.777344 3.644531 6.621094 7.449219 6.617188 3.800781 0 7-2.84375 7.445312-6.621094.96875-8.195313 2.085938-16.246094 8.164063-22.328125 4.785156-4.785156 11.914063-6.523438 17.128906-1.3125 3.398438 3.402344 3.074219 6.59375 2.203125 8.671875-2.539062 6.054687 3.746094 12.355469 9.8125 9.820313 6.148438-2.570313 12.007813 3.972656 11.972656 9.832031-.019531 3.21875-1.613281 6.503906-4.605468 9.496093-6.089844 6.089844-14.148438 7.207032-22.335938 8.179688-3.773437.445312-6.617187 3.648438-6.617187 7.449219 0 3.699219 2.867187 7.003906 6.621093 7.445312 8.109376.960938 16.292969 2.128907 22.332032 8.167969 3.394531 3.398438 4.679687 6.722656 4.636718 9.675781-.085937 5.707031-5.996093 12.167969-12 9.65625-5.957031-2.496093-12.316406 3.835938-9.816406 9.8125 1.265625 3.027344.527344 5.941407-2.191406 8.664063-4.203125 4.203125-10.179688 4.085937-14.828125.695312-.007813-.007812-.023437-.019531-.03125-.027344-7.777344-5.628906-9.40625-15.414062-10.457031-24.296874-.457032-3.84375-3.96875-6.796876-7.828125-6.601563-3.582031.175781-6.648438 3.03125-7.070313 6.601563-1.046875 8.84375-2.867187 18.683593-10.488281 24.332031-4.355469 3.222656-10.871094 3.242187-14.804687-.695313-3.398438-3.398437-3.074219-6.59375-2.203126-8.671875 2.476563-5.921875-3.917968-12.28125-9.8125-9.816406-3.191406 1.335937-6.328124.148437-8.664062-2.191406zm420.671875 161.640625c-5.421875 3.566406-11.800781 5.570312-18.285156 5.769531 3.113281-11.886719 5.109375-24.121094 5.933593-36.589844.621094-9.40625.585938-18.867187-.136718-28.269531-.132813-1.75-.382813-3.503906-.460938-5.253906-.003906-.011719 1.210938.222656 1.257813.234375 15.863281 3.546875 27.671875 18.132812 27.671875 34.535156.003906 11.703125-6.207032 23.144531-15.980469 29.574219zm-397.957031 5.644531c-2.078125-.203125-6.207032-1.175781-6.238282-1.183594-14.8125-4.226562-25.6875-17.882812-25.6875-34.035156 0-15.089844 10.046876-28.933594 24.382813-33.632813 1.433594-.472656 4.523437-1.15625 4.5625-1.164062-.027344.25-.042969.5-.066406.75-1.167969 11.695312-1.292969 23.507812-.367188 35.222656.910157 11.53125 2.851563 22.984375 5.800781 34.171875-.800781-.023437-1.59375-.054687-2.386718-.128906zm23.171875 55.199219c-11.65625 18.058594-31.46875 28.839844-52.996094 28.839844-2.324219-.011719-4.46875-.886719-5.507813-3.113282-9.195312-19.773437-7.632812-42.5 4.175782-60.792968 2.734375-4.238282 5.953125-8.113282 9.601562-11.566407 5.230469 2.992188 10.917969 4.976563 16.855469 5.933594 3.679687.589844 7.425781.792969 11.148437.574219.152344-.011719.300782-.015625.449219-.023438 4.597657 13.089844 10.59375 25.664063 17.890625 37.503906-.519531.898438-1.0625 1.78125-1.617187 2.644532zm152.707031 89.617187c9.199219.742188 18.453125.808594 27.660156.203125 5.988282-.378906 11.921875-1.019531 17.792969-1.933594v26.875c-10.351563 1.496094-20.832031 3.894532-30.324219 8.390626-5.609375-2.65625-12.226562-4.808594-19.757812-6.46875-.0625-.011719-7.089844-1.417969-10.566406-1.921876v-26.902343c5.046874.789062 10.109374 1.351562 15.195312 1.757812zm74.304688 23.558594c-4.589844-.753906-9.246094-.277344-13.851563.027344v-28.25c5.726563-1.355469 11.375-2.964844 16.933594-4.832031v33.710937c-.429688-.117187-2.488281-.558594-3.082031-.65625zm-107.957032-.171875c-4.519531-.238281-9.128906-.378906-13.53125.84375v-33.839844c5.578125 1.886719 11.246094 3.519532 16.988282 4.890625v28.308594c-1.152344-.078125-2.304688-.144531-3.457032-.203125zm-28.53125-31.3125v42.15625c-.003906 0-.003906.003906-.007812.007812-1.121094 1.414063-2.117188 2.929688-2.964844 4.539063h-20.351562c6.417968-21.980469 16.414062-37.699219 23.324218-46.703125zm-26.898437 61.703125h20.554687v23.109375h-23.175781c.34375-7.851562 1.21875-15.582031 2.621094-23.109375zm35.554687-1.367187c0-6.578126 4.730469-12.472657 11.148438-13.90625 5.890625-1.316407 12.949218.082031 18.890625.714843 11.871093 1.265625 24.414062 3.410157 34.964843 9.296875 2.238282 1.246094 5.066407 1.246094 7.304688 0 6.179688-3.445312 13.046875-5.480468 19.933594-6.953125 9.933594-2.121093 20.125-3.070312 30.269531-3.378906 7.765625-.234375 14.804687 6.398437 14.804687 14.226563v24.476562h-137.316406zm152.3125 24.476562v-23.109375h20.554688c1.402344 7.527344 2.277344 15.257813 2.621094 23.109375zm-3.386718-38.109375c-.847657-1.601563-1.839844-3.117187-2.957032-4.527344v-42.160156c6.898438 8.96875 16.847656 24.628906 23.273438 46.6875zm47.042968-105.898437c-34.796875 34.796874-82.648437 53.902343-131.898437 52.671874-.175781-.003906-.351563-.011718-.527344-.019531-44.785156-1.242187-88.5-19.976562-120.539063-51.246093-39.957031-38.992188-59.769531-95.140626-53.070312-150.589844.121094-.988282.253906-2 .390625-3 .0625-.054688.121094-.117188.179687-.171875 20.910157-20.058594 48.976563-28.941407 75.90625-37.667969 33.171876-10.746094 69.84375-24.777344 102.246094-72.003906 31.320313 45.652344 66.632813 60.285156 98.917969 70.917968 28.28125 9.316407 57.199219 17.570313 79.234375 38.75.058594.058594.121094.121094.183594.179688.011718.097656.027344.195312.039062.292969 2.046875 15.042969 2.199219 30.34375.472656 45.425781-4.566406 39.992188-23.09375 78.019531-51.535156 106.460938zm40.46875-22.496094c-.546875-.847656-1.078125-1.71875-1.589844-2.605469 7.324219-11.863281 13.324219-24.4375 17.917969-37.539063 2.132813.144532 4.277344.144532 6.410157.019532 7.679687-.445313 15.308593-2.683594 21.984374-6.507813 3.652344 3.453125 6.871094 7.328125 9.605469 11.566407 11.808594 18.292968 13.367188 41.019531 4.171875 60.792968-.867187 1.867188-2.757812 3.085938-4.816406 3.109375l-.6875.003907c-21.527344 0-41.339844-10.78125-52.996094-28.839844zm0 0"/></svg>