<svg height="511pt" viewBox="0 0 511.99877 511" width="511pt" xmlns="http://www.w3.org/2000/svg"><path d="m335.003906 394.503906c33.917969 11.808594 56.644532 71.136719 82.617188 95.863282 47.457031 45.175781 117.453125-24.824219 72.277344-72.28125-24.722657-25.972657-84.054688-48.699219-95.863282-82.617188zm0 0" fill="#c86d5c"/><path d="m394.035156 335.46875-59.03125 59.035156c9.28125 3.230469 17.722656 10.023438 25.625 18.691406 9.847656-7.238281 19.222656-15.269531 28.027344-24.074218 8.804688-8.804688 16.832031-18.179688 24.074219-28.027344-8.667969-7.898438-15.460938-16.34375-18.695313-25.625zm0 0" fill="#ad4f3d"/><path d="m429.195312 218.828125c0 116.441406-94.390624 210.832031-210.832031 210.832031-116.441406 0-210.832031-94.390625-210.832031-210.832031 0-116.4375 94.390625-210.832031 210.832031-210.832031 116.441407 0 210.832031 94.394531 210.832031 210.832031zm0 0" fill="#3a484a"/><path d="m384.597656 218.828125c0 91.808594-74.425781 166.234375-166.234375 166.234375-91.808593 0-166.234375-74.425781-166.234375-166.234375s74.425782-166.230469 166.234375-166.230469c91.808594 0 166.234375 74.421875 166.234375 166.230469zm0 0" fill="#6ee3ff"/><path d="m98.335938 199.691406v78.875c0 19.648438 14.773437 36.160156 34.304687 38.332032l56.699219 6.308593zm0 0" fill="#e0824a"/><path d="m338.125 199.691406v78.875c0 19.648438-14.777344 36.160156-34.308594 38.332032l-56.695312 6.308593zm0 0" fill="#e0824a"/><path d="m338.125 199.691406c-.011719.007813-.011719.007813-.011719.007813l-119.75-95.78125-120.027343 95.773437.039062.003906c-.011719 0-.019531.003907-.03125.003907l-.007812-.007813c-.058594 1.574219-.089844 3.148438-.089844 4.730469 0 67.582031 53.710937 122.363281 119.980468 122.363281 66.269532 0 119.984376-54.78125 119.984376-122.363281 0-1.582031-.027344-3.15625-.085938-4.730469zm0 0" fill="#fbc4ac"/><path d="m118.246094 204.421875c0-1.582031.027344-3.15625.085937-4.730469l.011719.007813c.011719 0-.105469-13.457031-.097656-13.457031l4.839844-.332032 104.691406-74.460937-9.414063-7.53125-120.027343 95.773437.039062.003906c-.011719 0-.019531.003907-.03125.003907l-.007812-.007813c-.058594 1.574219-.089844 3.148438-.089844 4.730469 0 67.582031 53.710937 122.363281 119.980468 122.363281 3.367188 0 6.703126-.148437 10-.425781-61.585937-5.183594-109.980468-57.789063-109.980468-121.9375zm0 0" fill="#e3b098"/><path d="m218.230469 82.070312c-64.714844 0-117.457031 52.234376-119.894531 117.621094l.007812.007813c64.394531-7.121094 119.886719-69.320313 119.886719-69.320313s55.492187 62.199219 119.882812 69.320313c0 0 0 0 .011719-.007813-2.441406-65.386718-55.179688-117.621094-119.894531-117.621094zm0 0" fill="#e0824a"/><path d="m228.230469 82.496094c-3.300781-.277344-6.632813-.425782-10-.425782-64.714844 0-117.457031 52.234376-119.894531 117.621094l.007812.011719c6.859375-.761719 13.613281-2.148437 20.210938-4.011719 4.160156-60.128906 50.90625-108.25 109.675781-113.195312zm0 0" fill="#cc7643"/><path d="m162.742188 248.453125h-16.9375c-4.140626 0-7.5-3.355469-7.5-7.5 0-4.140625 3.359374-7.496094 7.5-7.496094h16.9375c4.140624 0 7.5 3.355469 7.5 7.496094 0 4.144531-3.359376 7.5-7.5 7.5zm0 0" fill="#f98084"/><path d="m290.660156 248.453125h-16.941406c-4.140625 0-7.496094-3.355469-7.496094-7.5 0-4.140625 3.355469-7.496094 7.496094-7.496094h16.941406c4.140625 0 7.496094 3.355469 7.496094 7.496094 0 4.144531-3.355469 7.5-7.496094 7.5zm0 0" fill="#f98084"/><path d="m285.539062 379.066406c20.835938-8.730468 39.554688-21.3125 55.632813-37.390625 67.738281-67.738281 67.738281-177.957031 0-245.695312s-177.957031-67.738281-245.695313 0c-67.738281 67.738281-67.738281 177.957031 0 245.695312 33.0625 33.0625 77 50.933594 122.523438 50.933594 12.84375 0 25.820312-1.421875 38.710938-4.328125 4.039062-.914062 6.574218-4.925781 5.664062-8.96875-.910156-4.039062-4.921875-6.574219-8.964844-5.664062-53.515625 12.074218-108.59375-3.84375-147.328125-42.578126-61.886719-61.890624-61.886719-162.59375 0-224.484374 61.890625-61.890626 162.59375-61.890626 224.488281 0 61.886719 61.890624 61.886719 162.59375 0 224.484374-14.695312 14.695313-31.796874 26.1875-50.828124 34.164063-3.816407 1.597656-5.617188 5.992187-4.015626 9.8125 1.597657 3.820313 5.992188 5.617187 9.8125 4.019531zm0 0"/><path d="m154.234375 230.171875c4.144531 0 7.5-3.355469 7.5-7.5v-12.433594c0-4.144531-3.355469-7.5-7.5-7.5-4.140625 0-7.496094 3.355469-7.496094 7.5v12.433594c0 4.144531 3.355469 7.5 7.496094 7.5zm0 0"/><path d="m282.152344 230.171875c4.140625 0 7.5-3.355469 7.5-7.5v-12.433594c0-4.144531-3.359375-7.5-7.5-7.5s-7.5 3.355469-7.5 7.5v12.433594c0 4.144531 3.359375 7.5 7.5 7.5zm0 0"/><path d="m234.570312 229.542969c-3.121093-2.726563-7.855468-2.410157-10.582031.710937-1.386719 1.585938-3.5 2.496094-5.792969 2.496094-2.296874 0-4.40625-.910156-5.792968-2.496094-2.726563-3.117187-7.464844-3.4375-10.582032-.710937-3.121093 2.726562-3.4375 7.460937-.710937 10.582031 4.234375 4.84375 10.460937 7.625 17.085937 7.625 6.621094 0 12.847657-2.78125 17.085938-7.625 2.722656-3.121094 2.40625-7.855469-.710938-10.582031zm0 0"/><path d="m.109375 225.726562c1.746094 55.691407 24.414063 108.066407 63.832031 147.484376 41.238282 41.238281 96.066406 63.949218 154.382813 63.949218 42.28125 0 82.71875-11.945312 117.480469-34.222656 17.210937 8.03125 32.101562 30.8125 46.527343 52.894531 10.070313 15.414063 19.585938 29.976563 30.078125 39.964844 11.433594 10.882813 25.039063 16.636719 39.355469 16.636719 23.089844 0 45.921875-15.632813 55.519531-38.015625 9.1875-21.429688 4.816406-43.84375-11.992187-61.503907-9.988281-10.492187-24.550781-20.007812-39.964844-30.078124-22.078125-14.425782-44.863281-29.316407-52.894531-46.527344 22.277344-34.761719 34.222656-75.199219 34.222656-117.480469 0-58.320313-22.710938-113.148437-63.949219-154.382813-39.316406-39.320312-91.5625-61.988281-147.109375-63.824218-55.269531-1.832032-108.640625 17.074218-150.265625 53.21875-3.125 2.71875-3.460937 7.453125-.746093 10.582031 2.714843 3.125 7.453124 3.460937 10.578124.742187 38.761719-33.65625 88.457032-51.246093 139.941407-49.554687 51.726562 1.710937 100.382812 22.820313 137 59.4375 70.550781 70.554687 78.316406 180.476563 23.296875 259.699219-.050782.074218-.101563.152344-.15625.230468-10.347656 14.832032-22.675782 28.332032-36.578125 39.902344-4.578125 3.816406-9.308594 7.464844-14.199219 10.875-.0625.042969-.125.082032-.1875.125-79.222656 55.046875-189.171875 47.289063-259.734375-23.273437-36.707031-36.710938-57.820313-85.488281-59.445313-137.347657-1.621093-51.625 16.15625-101.398437 50.050782-140.148437 2.730468-3.117187 2.414062-7.851563-.703125-10.582031-3.117188-2.726563-7.855469-2.40625-10.582031.707031-36.40625 41.617187-55.496094 95.0625-53.757813 150.492187zm447.015625 169.664063c14.664062 9.582031 28.519531 18.632813 37.304688 27.863281 17.082031 17.945313 13.015624 36.054688 9.070312 45.253906-7.304688 17.035157-24.464844 28.929688-41.738281 28.929688-10.386719 0-20.417969-4.324219-29.007813-12.503906-9.230468-8.789063-18.28125-22.640625-27.863281-37.308594-13.730469-21.011719-27.847656-42.613281-45.445313-54.1875 5.90625-4.453125 11.613282-9.226562 17.101563-14.316406 9.632813-8.921875 18.484375-18.691406 26.390625-29.175782 11.570312 17.601563 33.171875 31.714844 54.1875 45.445313zm0 0"/><path d="m131.777344 324.351562 56.304687 6.261719c9.660157 2.390625 19.742188 3.667969 30.109375 3.667969 10.371094 0 20.453125-1.277344 30.109375-3.667969l56.308594-6.261719c23.359375-2.601562 40.976563-22.285156 40.976563-45.789062 0 0 0-69.566406 0-69.574219 0-3.199219.113281-6.378906-.003907-9.582031-1.253906-33.601562-15.042969-64.992188-38.828125-88.394531-23.886718-23.503907-55.339844-36.445313-88.5625-36.445313-33.21875 0-64.671875 12.941406-88.558594 36.445313-23.785156 23.402343-37.574218 54.792969-38.828124 88.398437-.117188 3.191406-.113282 6.382813-.003907 9.574219v69.578125c0 23.503906 17.617188 43.191406 40.976563 45.789062zm13.28125-13.613281-11.625-1.292969c-15.753906-1.753906-27.636719-15.027343-27.636719-30.882812v-12.914062c9.410156 17.847656 22.789063 33.210937 38.9375 44.847656.109375.078125.214844.164062.324219.242187zm45.558594 5.050781c-16.082032-4.136718-31.152344-12.0625-43.867188-22.71875-.035156-.027343-.066406-.054687-.097656-.082031-24.191406-20.472656-39.683594-50.953125-40.859375-84.375 0-.023437-.003907-.042969-.003907-.066406-.027343-.769531-.054687-1.535156-.066406-2.304687.667969-.109376 1.324219-.246094 1.984375-.367188 17.058594-3.089844 33.480469-9.550781 48.695313-17.761719 22.132812-11.945312 42.390625-27.613281 60.230468-45.296875.550782-.546875 1.070313-1.066406 1.558594-1.558594.492188.492188 1.007813 1.011719 1.558594 1.554688 15.664062 15.523438 33.066406 29.359375 52.035156 40.636719 18.136719 10.785156 37.957032 19.339843 58.875 22.792969-.011718.769531-.035156 1.535156-.0625 2.300781 0 .023437-.003906.046875-.003906.066406-1.023438 32.6875-16.710938 64.628906-42.03125 85.347656-12.476562 10.210938-27.171875 17.8125-42.792969 21.832031-18.015625 4.640626-37.140625 4.652344-55.152343 0zm139.972656-37.226562c0 15.851562-11.882813 29.128906-27.636719 30.882812l-11.625 1.292969c.109375-.082031.21875-.164062.332031-.246093 16.140625-11.636719 29.523438-27 38.929688-44.847657zm-190.4375-156.859375c21.0625-20.722656 48.777344-32.136719 78.042968-32.136719 29.261719 0 56.976563 11.414063 78.039063 32.136719 18.882813 18.582031 30.648437 42.867187 33.667969 69.15625-.515625-.101563-1.035156-.210937-1.550782-.316406-13.953124-2.921875-27.335937-8.332031-39.894531-15.007813-6.558593-3.488281-12.914062-7.355468-19.082031-11.496094-.011719-.007812-.023438-.015624-.035156-.023437-16.371094-11-32.390625-23.882813-45.550782-38.632813-2.933593-3.289062-8.25-3.292968-11.1875-.003906-.511718.570313-49.183593 54.367188-106.117187 65.480469 3.019531-26.289063 14.78125-50.574219 33.667969-69.15625zm0 0"/></svg>